<?xml version="1.0" encoding="UTF-8"?>
<svg version="1.1" xmlns="http://www.w3.org/2000/svg" width="512" height="512">
<path d="M0 0 C6.14102611 5.56976786 9.81353484 12.15381182 12.9921875 19.72265625 C13.36103058 20.58257675 13.72987366 21.44249725 14.1098938 22.32847595 C14.87982577 24.13211043 15.64424254 25.93810851 16.40332031 27.74633789 C17.56393278 30.50340361 18.74947514 33.24879356 19.9375 35.99414062 C20.68641634 37.75716738 21.43386368 39.52081903 22.1796875 41.28515625 C22.53271942 42.09888199 22.88575134 42.91260773 23.2494812 43.75099182 C25.20739489 48.47506596 26.22240137 52.22659269 25.6875 57.4375 C24.1875 59.375 24.1875 59.375 22.6875 60.4375 C25.21454131 69.39679464 25.21454131 69.39679464 29.6875 77.4375 C32.66064468 78.26638749 32.66064468 78.26638749 35.6875 78.4375 C38.98586779 81.17045885 40.59406374 83.89825553 42.24951172 87.81005859 C42.71034149 88.8857309 43.17117126 89.9614032 43.64596558 91.06967163 C44.13146881 92.23003937 44.61697205 93.3904071 45.1171875 94.5859375 C45.63000275 95.7900528 46.14281799 96.99416809 46.6711731 98.23477173 C48.03533144 101.43812907 49.38785381 104.64627156 50.73791504 107.85559082 C52.09320941 111.07198223 53.45905379 114.28388246 54.82421875 117.49609375 C57.30762054 123.34273429 59.78091463 129.19358403 62.24700928 135.04754639 C63.27938024 137.4770585 64.32142486 139.90055094 65.37652588 142.32012939 C65.65481295 142.96076639 65.93310001 143.60140339 66.21982002 144.26145363 C67.00221782 146.05998672 67.78861144 147.85678 68.57522583 149.6534729 C69.6875 152.4375 69.6875 152.4375 69.6875 154.4375 C70.68885483 154.47719406 71.69020966 154.51688812 72.72190857 154.55778503 C88.72183615 155.2632366 104.65349956 156.77490054 120.59765625 158.23828125 C122.11646043 158.37722972 123.63526883 158.51613195 125.15408134 158.65498924 C132.27817122 159.30679224 139.40192268 159.96215074 146.52526957 160.62202388 C154.69563491 161.37876371 162.86703134 162.12280464 171.03950793 162.85638362 C177.40193374 163.42832155 183.76321653 164.01200101 190.12377065 164.60438794 C193.90478979 164.95624773 197.68610045 165.3031861 201.46870613 165.63759804 C205.01853829 165.95171444 208.56672073 166.28048163 212.11419678 166.62014389 C214.01961479 166.79892919 215.92642011 166.96273614 217.83323669 167.12593079 C225.69645059 167.89763878 233.87439516 168.99447119 239.94140625 174.47265625 C240.37324219 175.14167969 240.80507813 175.81070313 241.25 176.5 C241.70503906 177.17160156 242.16007812 177.84320313 242.62890625 178.53515625 C245.70872599 184.06974006 245.4030997 190.3048106 244.6875 196.4375 C240.53444805 207.34777173 228.32348332 214.96603766 219.5703125 222.0234375 C215.75872173 225.21525741 212.14906819 228.60012901 208.52172852 231.99780273 C205.19630245 235.09500846 201.80048325 238.03357067 198.25 240.875 C193.22827775 244.90261129 188.56167239 249.23095856 183.87915039 253.64038086 C179.58606 257.66108045 175.12494508 261.38754394 170.53125 265.0625 C167.13114815 267.9021455 163.911649 270.90139371 160.6875 273.9375 C155.77789702 278.56044958 150.74271457 282.90351179 145.4765625 287.12109375 C141.6308745 290.31506152 137.97357347 293.6950639 134.34301758 297.13037109 C130.7250561 300.54511323 126.99254456 303.62897752 122.8828125 306.44921875 C119.54903376 311.99462196 123.82904347 323.12291474 125.20019531 329.12573242 C125.45565628 330.26213669 125.71111725 331.39854095 125.97431946 332.56938171 C126.81678511 336.31164006 127.66616113 340.0522933 128.515625 343.79296875 C129.10852782 346.41761438 129.69996398 349.04258992 130.29144287 351.66755676 C131.69107415 357.87515209 133.09570289 364.08160535 134.50213981 370.28766185 C136.08340984 377.26633765 137.65900626 384.24629015 139.2341485 391.22635114 C141.43769277 400.99040724 143.64303854 410.75405522 145.85351181 420.5165453 C146.38237498 422.85291905 146.91062314 425.18943213 147.43820572 427.52609539 C148.66624156 432.95946342 149.90596256 438.3895485 151.17443848 443.81362915 C151.40703243 444.81518445 151.63962639 445.81673975 151.87926865 446.84864521 C152.30971069 448.69937862 152.74433917 450.54914618 153.18423843 452.39765453 C155.23748158 461.25620877 156.88696211 470.57681566 151.94921875 478.7890625 C148.12364374 483.78718217 143.93098262 486.23261739 137.6875 487.4375 C126.04316832 488.75572623 115.58923611 480.64933584 106.0625 474.875 C104.65020423 474.02656982 103.23743374 473.17892941 101.82421875 472.33203125 C98.89497066 470.57579219 95.96777304 468.81620791 93.04199219 467.05419922 C86.93280562 463.37853981 80.79896897 459.74456765 74.66534424 456.1098938 C71.33824082 454.13770846 68.01296926 452.16243912 64.6875 450.1875 C63.35417532 449.39581876 62.02084199 448.60415209 60.6875 447.8125 C58.02083333 446.22916667 55.35416667 444.64583333 52.6875 443.0625 C52.02763596 442.6707106 51.36777191 442.2789212 50.68791199 441.8752594 C49.35318806 441.08275721 48.01848147 440.29022583 46.68379211 439.49766541 C43.37187558 437.53104386 40.05966963 435.56491329 36.74682617 433.59985352 C30.49095794 429.88838298 24.23831754 426.1717366 17.99514771 422.43893433 C15.04252738 420.67394187 12.08834348 418.91157598 9.1340332 417.14941406 C7.72471904 416.30779183 6.31617409 415.46488006 4.90844727 414.62060547 C2.95782018 413.45083871 1.00459823 412.28552233 -0.94921875 411.12109375 C-2.05998779 410.45650146 -3.17075684 409.79190918 -4.31518555 409.10717773 C-5.30429932 408.55618408 -6.29341309 408.00519043 -7.3125 407.4375 C-8.55 406.7266626 -8.55 406.7266626 -9.8125 406.00146484 C-13.63791021 405.13850609 -15.39524478 406.70580168 -18.67578125 408.73046875 C-19.29166611 409.10316391 -19.90755096 409.47585907 -20.542099 409.85984802 C-22.580382 411.09833038 -24.60209453 412.36158479 -26.625 413.625 C-28.05644866 414.5004487 -29.48908688 415.37395502 -30.92285156 416.24560547 C-33.90646828 418.06143915 -36.88475654 419.88559213 -39.85986328 421.71533203 C-46.05274859 425.51403203 -52.31309445 429.19755362 -58.57122803 432.8873291 C-70.02399309 439.64630346 -81.40492273 446.5182537 -92.7557373 453.44668579 C-101.03871519 458.49835847 -109.38604862 463.40913638 -117.83740234 468.17333984 C-122.18846267 470.63122332 -126.49996392 473.13702331 -130.76953125 475.734375 C-131.66736328 476.28053467 -132.56519531 476.82669434 -133.49023438 477.3894043 C-135.18669281 478.42642582 -136.87970081 479.46912407 -138.56835938 480.51879883 C-145.38755864 484.68918864 -152.07293549 488.4319302 -160.3125 487.4375 C-167.06462604 485.55837058 -171.4542471 483.34544975 -175.3125 477.4375 C-180.65206175 466.11292604 -176.18431417 452.43098014 -173.55078125 440.84375 C-173.15851928 439.08083868 -172.7669455 437.31777411 -172.37602234 435.55456543 C-171.55886823 431.88480802 -170.73139016 428.21757125 -169.89672852 424.55175781 C-168.83002553 419.86153585 -167.79299893 415.16530548 -166.76388264 410.46671295 C-165.9644312 406.83489468 -165.14782259 403.20709784 -164.32616234 399.58024597 C-163.93657389 397.84960913 -163.55267177 396.11768167 -163.1746769 394.38447571 C-162.64490491 391.96611504 -162.09179857 389.5542492 -161.5324707 387.14257812 C-161.38213379 386.43291901 -161.23179687 385.72325989 -161.0769043 384.99209595 C-159.92264764 380.17162528 -158.18071783 377.52012135 -154.3125 374.4375 C-152.9925 374.1075 -151.6725 373.7775 -150.3125 373.4375 C-148.9925 368.1575 -147.6725 362.8775 -146.3125 357.4375 C-147.6325 356.7775 -148.9525 356.1175 -150.3125 355.4375 C-151.85293826 353.89706174 -151.53816865 352.51593782 -151.59375 350.36328125 C-151.51954211 342.91731473 -149.56612124 335.81518333 -147.8125 328.625 C-147.30885599 326.53340457 -146.80855252 324.44114443 -146.3145752 322.34724426 C-145.86857782 320.46050019 -145.41213306 318.57623464 -144.95507812 316.69213867 C-144.3785207 313.77189283 -143.96853091 311.38886341 -144.3125 308.4375 C-145.37698694 306.7488564 -145.37698694 306.7488564 -146.98828125 305.421875 C-147.56320313 304.89787109 -148.138125 304.37386719 -148.73046875 303.83398438 C-149.66826172 303.01897461 -149.66826172 303.01897461 -150.625 302.1875 C-151.264375 301.61322266 -151.90375 301.03894531 -152.5625 300.44726562 C-157.07983717 296.4213354 -161.74411137 292.5922109 -166.46875 288.8125 C-169.86885185 285.9728545 -173.088351 282.97360629 -176.3125 279.9375 C-181.22556055 275.31129473 -186.26371959 270.96479122 -191.53515625 266.74609375 C-195.32067282 263.59948293 -198.88755162 260.24062334 -202.47900391 256.87646484 C-205.80422323 253.77955297 -209.19979071 250.84121008 -212.75 248 C-217.77172225 243.97238871 -222.43832761 239.64404144 -227.12084961 235.23461914 C-230.58328844 231.99186739 -234.10545976 228.90313219 -237.8125 225.9375 C-242.89462156 221.87180275 -247.64010828 217.50842346 -252.3671875 213.04101562 C-255.04337797 210.51695199 -257.73089902 208.06048166 -260.58203125 205.734375 C-265.00448201 202.01420183 -267.02891279 198.98978491 -267.66015625 193.30859375 C-267.8160161 187.35203675 -267.83468826 182.46919751 -264.3125 177.4375 C-263.796875 176.57125 -263.28125 175.705 -262.75 174.8125 C-255.5630282 167.80980953 -245.02458668 167.51295128 -235.53466797 166.69824219 C-234.06823767 166.56101732 -232.60193153 166.42246019 -231.13574219 166.28268433 C-227.1825524 165.90967689 -223.22788769 165.55544013 -219.27264929 165.20491695 C-215.11944106 164.83377804 -210.96780349 164.44580597 -206.81594849 164.05987549 C-199.84840745 163.41459373 -192.87992298 162.78052289 -185.91064453 162.15429688 C-176.98054265 161.35184258 -168.05212381 160.53206006 -159.1241436 159.70637131 C-151.4250411 158.9943456 -143.72533382 158.28894617 -136.02546167 157.58529758 C-134.37818797 157.43467421 -132.73093395 157.28383534 -131.0836997 157.13278103 C-126.38772974 156.70218877 -121.69146642 156.27514566 -116.99464417 155.85394669 C-115.57560854 155.72617582 -114.15668001 155.59720856 -112.73787308 155.46692276 C-105.90947935 154.84079331 -99.17182536 154.26814397 -92.3125 154.4375 C-92.1473288 153.91012741 -91.98215759 153.38275482 -91.8119812 152.83940125 C-89.83418865 146.7005099 -87.44358394 140.81073555 -84.8828125 134.89453125 C-84.45662125 133.90200348 -84.03042999 132.90947571 -83.59132385 131.88687134 C-82.21023319 128.67305469 -80.82394162 125.46151141 -79.4375 122.25 C-78.47082313 120.00346002 -77.50443524 117.75679566 -76.53833008 115.51000977 C-71.24102956 103.19753277 -65.93404274 90.88891665 -60.57250977 78.60424805 C-57.33309833 71.16355568 -54.1498758 63.70068366 -50.99327087 56.22444153 C-49.11141129 51.7675973 -47.22201939 47.31395472 -45.33153629 42.8607626 C-43.70912797 39.03705292 -42.09647993 35.20941449 -40.49075699 31.37867069 C-39.23315569 28.38671441 -37.96102867 25.40093313 -36.69140625 22.4140625 C-36.01233719 20.78152779 -36.01233719 20.78152779 -35.31954956 19.11601257 C-31.67730737 10.6048609 -27.76221441 2.93202894 -19.3125 -1.5625 C-12.81890444 -3.25083485 -6.07389734 -2.86504591 0 0 Z " fill="#FEDB63" transform="translate(267.3125,13.5625)"/>
<path d="M0 0 C6.14102611 5.56976786 9.81353484 12.15381182 12.9921875 19.72265625 C13.36103058 20.58257675 13.72987366 21.44249725 14.1098938 22.32847595 C14.87982577 24.13211043 15.64424254 25.93810851 16.40332031 27.74633789 C17.56393278 30.50340361 18.74947514 33.24879356 19.9375 35.99414062 C20.68641634 37.75716738 21.43386368 39.52081903 22.1796875 41.28515625 C22.53271942 42.09888199 22.88575134 42.91260773 23.2494812 43.75099182 C25.20739489 48.47506596 26.22240137 52.22659269 25.6875 57.4375 C24.1875 59.375 24.1875 59.375 22.6875 60.4375 C25.21454131 69.39679464 25.21454131 69.39679464 29.6875 77.4375 C32.66064468 78.26638749 32.66064468 78.26638749 35.6875 78.4375 C38.98586779 81.17045885 40.59406374 83.89825553 42.24951172 87.81005859 C42.71034149 88.8857309 43.17117126 89.9614032 43.64596558 91.06967163 C44.13146881 92.23003937 44.61697205 93.3904071 45.1171875 94.5859375 C45.63000275 95.7900528 46.14281799 96.99416809 46.6711731 98.23477173 C48.03533144 101.43812907 49.38785381 104.64627156 50.73791504 107.85559082 C52.09320941 111.07198223 53.45905379 114.28388246 54.82421875 117.49609375 C57.30762054 123.34273429 59.78091463 129.19358403 62.24700928 135.04754639 C63.27938024 137.4770585 64.32142486 139.90055094 65.37652588 142.32012939 C65.65481295 142.96076639 65.93310001 143.60140339 66.21982002 144.26145363 C67.00221782 146.05998672 67.78861144 147.85678 68.57522583 149.6534729 C69.6875 152.4375 69.6875 152.4375 69.6875 154.4375 C70.68885483 154.47719406 71.69020966 154.51688812 72.72190857 154.55778503 C88.72183615 155.2632366 104.65349956 156.77490054 120.59765625 158.23828125 C122.11646043 158.37722972 123.63526883 158.51613195 125.15408134 158.65498924 C132.27817122 159.30679224 139.40192268 159.96215074 146.52526957 160.62202388 C154.69563491 161.37876371 162.86703134 162.12280464 171.03950793 162.85638362 C177.40193374 163.42832155 183.76321653 164.01200101 190.12377065 164.60438794 C193.90478979 164.95624773 197.68610045 165.3031861 201.46870613 165.63759804 C205.01853829 165.95171444 208.56672073 166.28048163 212.11419678 166.62014389 C214.01961479 166.79892919 215.92642011 166.96273614 217.83323669 167.12593079 C225.69645059 167.89763878 233.87439516 168.99447119 239.94140625 174.47265625 C240.37324219 175.14167969 240.80507813 175.81070313 241.25 176.5 C241.70503906 177.17160156 242.16007812 177.84320313 242.62890625 178.53515625 C245.70872599 184.06974006 245.4030997 190.3048106 244.6875 196.4375 C240.53444805 207.34777173 228.32348332 214.96603766 219.5703125 222.0234375 C215.75872173 225.21525741 212.14906819 228.60012901 208.52172852 231.99780273 C205.19630245 235.09500846 201.80048325 238.03357067 198.25 240.875 C193.22827775 244.90261129 188.56167239 249.23095856 183.87915039 253.64038086 C179.58606 257.66108045 175.12494508 261.38754394 170.53125 265.0625 C167.13114815 267.9021455 163.911649 270.90139371 160.6875 273.9375 C155.77789702 278.56044958 150.74271457 282.90351179 145.4765625 287.12109375 C141.6308745 290.31506152 137.97357347 293.6950639 134.34301758 297.13037109 C130.7250561 300.54511323 126.99254456 303.62897752 122.8828125 306.44921875 C119.54903376 311.99462196 123.82904347 323.12291474 125.20019531 329.12573242 C125.45565628 330.26213669 125.71111725 331.39854095 125.97431946 332.56938171 C126.81678511 336.31164006 127.66616113 340.0522933 128.515625 343.79296875 C129.10852782 346.41761438 129.69996398 349.04258992 130.29144287 351.66755676 C131.69107415 357.87515209 133.09570289 364.08160535 134.50213981 370.28766185 C136.08340984 377.26633765 137.65900626 384.24629015 139.2341485 391.22635114 C141.43769277 400.99040724 143.64303854 410.75405522 145.85351181 420.5165453 C146.38237498 422.85291905 146.91062314 425.18943213 147.43820572 427.52609539 C148.66624156 432.95946342 149.90596256 438.3895485 151.17443848 443.81362915 C151.40703243 444.81518445 151.63962639 445.81673975 151.87926865 446.84864521 C152.30971069 448.69937862 152.74433917 450.54914618 153.18423843 452.39765453 C155.23748158 461.25620877 156.88696211 470.57681566 151.94921875 478.7890625 C148.12364374 483.78718217 143.93098262 486.23261739 137.6875 487.4375 C126.04316832 488.75572623 115.58923611 480.64933584 106.0625 474.875 C104.65020423 474.02656982 103.23743374 473.17892941 101.82421875 472.33203125 C98.89497066 470.57579219 95.96777304 468.81620791 93.04199219 467.05419922 C86.93280562 463.37853981 80.79896897 459.74456765 74.66534424 456.1098938 C71.33824082 454.13770846 68.01296926 452.16243912 64.6875 450.1875 C63.35417532 449.39581876 62.02084199 448.60415209 60.6875 447.8125 C58.02083333 446.22916667 55.35416667 444.64583333 52.6875 443.0625 C52.02763596 442.6707106 51.36777191 442.2789212 50.68791199 441.8752594 C49.35318806 441.08275721 48.01848147 440.29022583 46.68379211 439.49766541 C43.37187558 437.53104386 40.05966963 435.56491329 36.74682617 433.59985352 C30.49095794 429.88838298 24.23831754 426.1717366 17.99514771 422.43893433 C15.04252738 420.67394187 12.08834348 418.91157598 9.1340332 417.14941406 C7.72471904 416.30779183 6.31617409 415.46488006 4.90844727 414.62060547 C2.95782018 413.45083871 1.00459823 412.28552233 -0.94921875 411.12109375 C-2.05998779 410.45650146 -3.17075684 409.79190918 -4.31518555 409.10717773 C-5.30429932 408.55618408 -6.29341309 408.00519043 -7.3125 407.4375 C-8.55 406.7266626 -8.55 406.7266626 -9.8125 406.00146484 C-13.63791021 405.13850609 -15.39524478 406.70580168 -18.67578125 408.73046875 C-19.29166611 409.10316391 -19.90755096 409.47585907 -20.542099 409.85984802 C-22.580382 411.09833038 -24.60209453 412.36158479 -26.625 413.625 C-28.05644866 414.5004487 -29.48908688 415.37395502 -30.92285156 416.24560547 C-33.90646828 418.06143915 -36.88475654 419.88559213 -39.85986328 421.71533203 C-46.05274859 425.51403203 -52.31309445 429.19755362 -58.57122803 432.8873291 C-70.02399309 439.64630346 -81.40492273 446.5182537 -92.7557373 453.44668579 C-101.03871519 458.49835847 -109.38604862 463.40913638 -117.83740234 468.17333984 C-122.18846267 470.63122332 -126.49996392 473.13702331 -130.76953125 475.734375 C-131.66736328 476.28053467 -132.56519531 476.82669434 -133.49023438 477.3894043 C-135.18669281 478.42642582 -136.87970081 479.46912407 -138.56835938 480.51879883 C-145.38755864 484.68918864 -152.07293549 488.4319302 -160.3125 487.4375 C-167.06462604 485.55837058 -171.4542471 483.34544975 -175.3125 477.4375 C-180.65206175 466.11292604 -176.18431417 452.43098014 -173.55078125 440.84375 C-173.15851928 439.08083868 -172.7669455 437.31777411 -172.37602234 435.55456543 C-171.55886823 431.88480802 -170.73139016 428.21757125 -169.89672852 424.55175781 C-168.83002553 419.86153585 -167.79299893 415.16530548 -166.76388264 410.46671295 C-165.9644312 406.83489468 -165.14782259 403.20709784 -164.32616234 399.58024597 C-163.93657389 397.84960913 -163.55267177 396.11768167 -163.1746769 394.38447571 C-162.64490491 391.96611504 -162.09179857 389.5542492 -161.5324707 387.14257812 C-161.38213379 386.43291901 -161.23179687 385.72325989 -161.0769043 384.99209595 C-159.92264764 380.17162528 -158.18071783 377.52012135 -154.3125 374.4375 C-152.9925 374.1075 -151.6725 373.7775 -150.3125 373.4375 C-148.9925 368.1575 -147.6725 362.8775 -146.3125 357.4375 C-147.6325 356.7775 -148.9525 356.1175 -150.3125 355.4375 C-151.85293826 353.89706174 -151.53816865 352.51593782 -151.59375 350.36328125 C-151.51954211 342.91731473 -149.56612124 335.81518333 -147.8125 328.625 C-147.30885599 326.53340457 -146.80855252 324.44114443 -146.3145752 322.34724426 C-145.86857782 320.46050019 -145.41213306 318.57623464 -144.95507812 316.69213867 C-144.3785207 313.77189283 -143.96853091 311.38886341 -144.3125 308.4375 C-145.37698694 306.7488564 -145.37698694 306.7488564 -146.98828125 305.421875 C-147.56320313 304.89787109 -148.138125 304.37386719 -148.73046875 303.83398438 C-149.66826172 303.01897461 -149.66826172 303.01897461 -150.625 302.1875 C-151.264375 301.61322266 -151.90375 301.03894531 -152.5625 300.44726562 C-157.07983717 296.4213354 -161.74411137 292.5922109 -166.46875 288.8125 C-169.86885185 285.9728545 -173.088351 282.97360629 -176.3125 279.9375 C-181.22556055 275.31129473 -186.26371959 270.96479122 -191.53515625 266.74609375 C-195.32067282 263.59948293 -198.88755162 260.24062334 -202.47900391 256.87646484 C-205.80422323 253.77955297 -209.19979071 250.84121008 -212.75 248 C-217.77172225 243.97238871 -222.43832761 239.64404144 -227.12084961 235.23461914 C-230.58328844 231.99186739 -234.10545976 228.90313219 -237.8125 225.9375 C-242.89462156 221.87180275 -247.64010828 217.50842346 -252.3671875 213.04101562 C-255.04337797 210.51695199 -257.73089902 208.06048166 -260.58203125 205.734375 C-265.00448201 202.01420183 -267.02891279 198.98978491 -267.66015625 193.30859375 C-267.8160161 187.35203675 -267.83468826 182.46919751 -264.3125 177.4375 C-263.796875 176.57125 -263.28125 175.705 -262.75 174.8125 C-255.5630282 167.80980953 -245.02458668 167.51295128 -235.53466797 166.69824219 C-234.06823767 166.56101732 -232.60193153 166.42246019 -231.13574219 166.28268433 C-227.1825524 165.90967689 -223.22788769 165.55544013 -219.27264929 165.20491695 C-215.11944106 164.83377804 -210.96780349 164.44580597 -206.81594849 164.05987549 C-199.84840745 163.41459373 -192.87992298 162.78052289 -185.91064453 162.15429688 C-176.98054265 161.35184258 -168.05212381 160.53206006 -159.1241436 159.70637131 C-151.4250411 158.9943456 -143.72533382 158.28894617 -136.02546167 157.58529758 C-134.37818797 157.43467421 -132.73093395 157.28383534 -131.0836997 157.13278103 C-126.38772974 156.70218877 -121.69146642 156.27514566 -116.99464417 155.85394669 C-115.57560854 155.72617582 -114.15668001 155.59720856 -112.73787308 155.46692276 C-105.90947935 154.84079331 -99.17182536 154.26814397 -92.3125 154.4375 C-92.1473288 153.91012741 -91.98215759 153.38275482 -91.8119812 152.83940125 C-89.83418865 146.7005099 -87.44358394 140.81073555 -84.8828125 134.89453125 C-84.45662125 133.90200348 -84.03042999 132.90947571 -83.59132385 131.88687134 C-82.21023319 128.67305469 -80.82394162 125.46151141 -79.4375 122.25 C-78.47082313 120.00346002 -77.50443524 117.75679566 -76.53833008 115.51000977 C-71.24102956 103.19753277 -65.93404274 90.88891665 -60.57250977 78.60424805 C-57.33309833 71.16355568 -54.1498758 63.70068366 -50.99327087 56.22444153 C-49.11141129 51.7675973 -47.22201939 47.31395472 -45.33153629 42.8607626 C-43.70912797 39.03705292 -42.09647993 35.20941449 -40.49075699 31.37867069 C-39.23315569 28.38671441 -37.96102867 25.40093313 -36.69140625 22.4140625 C-36.01233719 20.78152779 -36.01233719 20.78152779 -35.31954956 19.11601257 C-31.67730737 10.6048609 -27.76221441 2.93202894 -19.3125 -1.5625 C-12.81890444 -3.25083485 -6.07389734 -2.86504591 0 0 Z M25.6875 93.4375 C-7.62342592 127.71503761 -34.17342596 170.3662533 -56.3125 212.4375 C-56.83457031 213.42959473 -57.35664063 214.42168945 -57.89453125 215.44384766 C-71.17334047 240.88278297 -82.08887031 267.27415457 -91.3125 294.4375 C-91.72290527 295.63197754 -91.72290527 295.63197754 -92.14160156 296.85058594 C-108.47397107 344.77401152 -119.80970637 398.69883963 -118.3125 449.4375 C-110.29610385 445.60380667 -102.65518548 441.36880655 -95.10107422 436.69287109 C-92.05498337 434.80834473 -88.99815392 432.94139346 -85.94140625 431.07421875 C-85.31106476 430.68889984 -84.68072327 430.30358093 -84.03128052 429.90658569 C-77.34320175 425.82846287 -70.58167237 421.87899981 -63.8125 417.9375 C-52.60098288 411.40518001 -41.47992499 404.73523414 -30.40820312 397.96875 C-28.28287175 396.67070355 -26.15513335 395.37658556 -24.02441406 394.08740234 C-22.40113454 393.09981475 -20.78551134 392.09920572 -19.18652344 391.07275391 C-15.32694702 388.66447097 -12.82756436 388.05756653 -8.3125 388.4375 C-5.79663086 389.54467773 -5.79663086 389.54467773 -3.27734375 391.12109375 C-1.83814575 392.00510864 -1.83814575 392.00510864 -0.36987305 392.90698242 C0.65968506 393.55642822 1.68924316 394.20587402 2.75 394.875 C4.41522384 395.90059817 6.08048556 396.92613797 7.74736023 397.9490509 C8.91650741 398.66693893 10.08471491 399.38635932 11.25202942 400.10722351 C17.3240776 403.85182289 23.47785076 407.45212678 29.64196777 411.04244995 C32.73252157 412.84310718 35.81962727 414.64964585 38.90625 416.45703125 C39.49742615 416.80318985 40.08860229 417.14934845 40.69769287 417.5059967 C46.43287675 420.86798544 52.1341566 424.28459435 57.82836914 427.71533203 C65.51255843 432.34208798 73.22379473 436.92269709 80.9375 441.5 C82.29476207 442.30565909 83.65202117 443.11132317 85.00927734 443.91699219 C91.5166854 447.7791681 98.02577147 451.6384928 104.53738403 455.49357605 C107.51631199 457.25745839 110.49458488 459.02244497 113.47277832 460.78756714 C114.90318911 461.63491374 116.33393271 462.48169877 117.76501465 463.32791138 C119.74908445 464.50112805 121.73207698 465.67614544 123.71484375 466.8515625 C124.84656006 467.5213916 125.97827637 468.1912207 127.14428711 468.88134766 C129.6875 470.4375 129.6875 470.4375 130.6875 471.4375 C134.79224101 471.87443724 134.79224101 471.87443724 138.3918457 470.20141602 C140.54677464 467.26767537 139.64453269 464.72266701 139.18115234 461.26513672 C138.34079521 456.45157773 137.20024343 451.73490526 136 447 C135.45117659 444.77521932 134.90436817 442.5499408 134.359375 440.32421875 C133.94075195 438.61564697 133.94075195 438.61564697 133.51367188 436.87255859 C132.18971313 431.36780106 130.96632437 425.84187795 129.75 420.3125 C129.25006977 418.04425545 128.75006853 415.77602656 128.25 413.5078125 C127.99605469 412.35571289 127.74210938 411.20361328 127.48046875 410.01660156 C126.08897443 403.73602685 124.66914294 397.46187488 123.25 391.1875 C122.95521754 389.88289916 122.66045848 388.57829302 122.36572266 387.27368164 C121.02891973 381.3584045 119.68950202 375.44373237 118.34487915 369.53022766 C115.01422479 354.8792417 111.74267427 340.2198961 108.64038086 325.51879883 C108.29825562 323.902677 108.29825562 323.902677 107.94921875 322.25390625 C107.63090088 320.74014404 107.63090088 320.74014404 107.30615234 319.19580078 C106.76768076 316.79499103 106.13477718 314.45374455 105.45703125 312.08984375 C104.59760705 308.01085074 104.53300267 305.44538911 105.6875 301.4375 C107.46132735 299.33145081 108.97940328 297.78522163 111.0625 296.0625 C111.60342285 295.59118652 112.1443457 295.11987305 112.70166016 294.63427734 C116.96985531 290.94397614 121.37669985 287.41794162 125.7734375 283.8828125 C129.82371706 280.48405244 133.6450426 276.86067369 137.4934082 273.23706055 C141.80613132 269.19819859 146.28579641 265.4481011 150.8984375 261.75390625 C155.32484163 258.07763503 159.49551112 254.13323628 163.703125 250.2109375 C168.32103761 245.90644486 173.09511607 241.79437595 177.8984375 237.69921875 C184.44405431 232.11431067 190.90789507 226.47196039 197.25390625 220.66015625 C204.09773451 214.40953301 211.18132797 208.42806703 218.22265625 202.40234375 C218.78629883 201.91725342 219.34994141 201.43216309 219.93066406 200.93237305 C221.15610625 199.8896573 222.39347736 198.86086941 223.63964844 197.84301758 C224.27032227 197.32247803 224.90099609 196.80193848 225.55078125 196.265625 C226.12481689 195.79930664 226.69885254 195.33298828 227.2902832 194.85253906 C228.97302043 193.34916183 228.97302043 193.34916183 229.8125 190.25 C229.94613782 187.44493394 229.94613782 187.44493394 228.375 185.625 C225.51125003 183.60976854 223.48478368 183.23660919 220.02832031 182.96020508 C219.04495193 182.87930634 218.06158356 182.79840759 217.04841614 182.71505737 C215.96509506 182.62990875 214.88177399 182.54476013 213.765625 182.45703125 C211.40485955 182.26367573 209.04410144 182.07023062 206.68334961 181.87670898 C205.42376434 181.77494354 204.16417908 181.6731781 202.86642456 181.56832886 C196.14561277 181.02379605 189.42613214 180.46362947 182.70703125 179.8984375 C182.00997637 179.83984747 181.31292149 179.78125744 180.59474373 179.72089195 C158.53064249 177.86109956 136.4991306 175.66371639 114.46394348 173.49154663 C106.49610022 172.70763297 98.5264549 171.94602523 90.5546875 171.203125 C89.55274857 171.1094313 88.55080963 171.01573761 87.51850891 170.91920471 C81.91532966 170.39549133 81.91532966 170.39549133 76.31149292 169.87887573 C73.87013276 169.65532401 71.42918589 169.42768148 68.98828125 169.19921875 C68.28214691 169.13595398 67.57601257 169.07268921 66.84848022 169.00750732 C63.94958087 168.73304726 61.46392842 168.36297614 58.6875 167.4375 C57.64593506 164.72695923 57.64593506 164.72695923 56.6875 161.4375 C55.93012307 159.55183652 55.15081531 157.6748689 54.35253906 155.80615234 C53.66106781 154.18318741 53.66106781 154.18318741 52.95562744 152.5274353 C52.45980164 151.37111603 51.96397583 150.21479675 51.453125 149.0234375 C50.93747986 147.81740875 50.42183472 146.61138 49.89056396 145.36880493 C48.79945273 142.81791712 47.706487 140.26783364 46.61230469 137.71826172 C45.22547697 134.4861692 43.84411274 131.25177517 42.46429825 128.01668358 C41.13063535 124.89247849 39.79156178 121.77060037 38.453125 118.6484375 C37.96539612 117.50426361 37.47766724 116.36008972 36.97515869 115.1812439 C33.79842127 107.79671084 30.36048918 100.58804213 26.6875 93.4375 C26.3575 93.4375 26.0275 93.4375 25.6875 93.4375 Z " fill="#FEC74F" transform="translate(267.3125,13.5625)"/>
<path d="M0 0 C4.14802366 1.50034898 6.20650756 3.70367425 8.28927612 7.57528687 C8.68865387 8.51901154 9.08803162 9.46273621 9.49951172 10.43505859 C9.96034149 11.5107309 10.42117126 12.5864032 10.89596558 13.69467163 C11.38146881 14.85503937 11.86697205 16.0154071 12.3671875 17.2109375 C12.88000275 18.4150528 13.39281799 19.61916809 13.9211731 20.85977173 C15.28533144 24.06312907 16.63785381 27.27127156 17.98791504 30.48059082 C19.34320941 33.69698223 20.70905379 36.90888246 22.07421875 40.12109375 C24.55762054 45.96773429 27.03091463 51.81858403 29.49700928 57.67254639 C30.52938024 60.1020585 31.57142486 62.52555094 32.62652588 64.94512939 C32.90481295 65.58576639 33.18310001 66.22640339 33.46982002 66.88645363 C34.25221782 68.68498672 35.03861144 70.48178 35.82522583 72.2784729 C36.9375 75.0625 36.9375 75.0625 36.9375 77.0625 C37.93885483 77.10219406 38.94020966 77.14188812 39.97190857 77.18278503 C55.97183615 77.8882366 71.90349956 79.39990054 87.84765625 80.86328125 C89.36646043 81.00222972 90.88526883 81.14113195 92.40408134 81.27998924 C99.52817122 81.93179224 106.65192268 82.58715074 113.77526957 83.24702388 C121.94563491 84.00376371 130.11703134 84.74780464 138.28950793 85.48138362 C144.65193374 86.05332155 151.01321653 86.63700101 157.37377065 87.22938794 C161.15478979 87.58124773 164.93610045 87.9281861 168.71870613 88.26259804 C172.26853829 88.57671444 175.81672073 88.90548163 179.36419678 89.24514389 C181.26961479 89.42392919 183.17642011 89.58773614 185.08323669 89.75093079 C192.94645059 90.52263878 201.12439516 91.61947119 207.19140625 97.09765625 C207.62324219 97.76667969 208.05507813 98.43570313 208.5 99.125 C208.95503906 99.79660156 209.41007812 100.46820313 209.87890625 101.16015625 C212.95872599 106.69474006 212.6530997 112.9298106 211.9375 119.0625 C207.78444805 129.97277173 195.57348332 137.59103766 186.8203125 144.6484375 C183.00872173 147.84025741 179.39906819 151.22512901 175.77172852 154.62280273 C172.44630245 157.72000846 169.05048325 160.65857067 165.5 163.5 C160.47827775 167.52761129 155.81167239 171.85595856 151.12915039 176.26538086 C146.83606 180.28608045 142.37494508 184.01254394 137.78125 187.6875 C134.38114815 190.5271455 131.161649 193.52639371 127.9375 196.5625 C123.02789702 201.18544958 117.99271457 205.52851179 112.7265625 209.74609375 C108.8808745 212.94006152 105.22357347 216.3200639 101.59301758 219.75537109 C97.9750561 223.17011323 94.24254456 226.25397752 90.1328125 229.07421875 C86.79903376 234.61962196 91.07904347 245.74791474 92.45019531 251.75073242 C92.83338676 253.45533882 92.83338676 253.45533882 93.22431946 255.19438171 C94.06678511 258.93664006 94.91616113 262.6772933 95.765625 266.41796875 C96.35852782 269.04261438 96.94996398 271.66758992 97.54144287 274.29255676 C98.94107415 280.50015209 100.34570289 286.70660535 101.75213981 292.91266185 C103.33340984 299.89133765 104.90900626 306.87129015 106.4841485 313.85135114 C108.68769277 323.61540724 110.89303854 333.37905522 113.10351181 343.1415453 C113.63237498 345.47791905 114.16062314 347.81443213 114.68820572 350.15109539 C115.91624156 355.58446342 117.15596256 361.0145485 118.42443848 366.43862915 C118.65703243 367.44018445 118.88962639 368.44173975 119.12926865 369.47364521 C119.55971069 371.32437862 119.99433917 373.17414618 120.43423843 375.02265453 C122.48748158 383.88120877 124.13696211 393.20181566 119.19921875 401.4140625 C115.37364374 406.41218217 111.18098262 408.85761739 104.9375 410.0625 C93.29316832 411.38072623 82.83923611 403.27433584 73.3125 397.5 C71.90020423 396.65156982 70.48743374 395.80392941 69.07421875 394.95703125 C66.14497066 393.20079219 63.21777304 391.44120791 60.29199219 389.67919922 C54.18280562 386.00353981 48.04896897 382.36956765 41.91534424 378.7348938 C38.58824082 376.76270846 35.26296926 374.78743912 31.9375 372.8125 C30.60417532 372.02081876 29.27084199 371.22915209 27.9375 370.4375 C25.27083333 368.85416667 22.60416667 367.27083333 19.9375 365.6875 C19.27763596 365.2957106 18.61777191 364.9039212 17.93791199 364.5002594 C16.60318806 363.70775721 15.26848147 362.91522583 13.93379211 362.12266541 C10.62187558 360.15604386 7.30966963 358.18991329 3.99682617 356.22485352 C-2.25904206 352.51338298 -8.51168246 348.7967366 -14.75485229 345.06393433 C-17.70747262 343.29894187 -20.66165652 341.53657598 -23.6159668 339.77441406 C-25.02528096 338.93279183 -26.43382591 338.08988006 -27.84155273 337.24560547 C-29.79217982 336.07583871 -31.74540177 334.91052233 -33.69921875 333.74609375 C-34.80998779 333.08150146 -35.92075684 332.41690918 -37.06518555 331.73217773 C-38.05429932 331.18118408 -39.04341309 330.63019043 -40.0625 330.0625 C-40.8875 329.5886084 -41.7125 329.1147168 -42.5625 328.62646484 C-46.38791021 327.76350609 -48.14524478 329.33080168 -51.42578125 331.35546875 C-52.04166611 331.72816391 -52.65755096 332.10085907 -53.292099 332.48484802 C-55.330382 333.72333038 -57.35209453 334.98658479 -59.375 336.25 C-60.80644866 337.1254487 -62.23908688 337.99895502 -63.67285156 338.87060547 C-66.65646828 340.68643915 -69.63475654 342.51059213 -72.60986328 344.34033203 C-78.80274859 348.13903203 -85.06309445 351.82255362 -91.32122803 355.5123291 C-102.77399309 362.27130346 -114.15492273 369.1432537 -125.5057373 376.07168579 C-133.78871519 381.12335847 -142.13604862 386.03413638 -150.58740234 390.79833984 C-154.93846267 393.25622332 -159.24996392 395.76202331 -163.51953125 398.359375 C-164.41736328 398.90553467 -165.31519531 399.45169434 -166.24023438 400.0144043 C-167.93669281 401.05142582 -169.62970081 402.09412407 -171.31835938 403.14379883 C-178.13755864 407.31418864 -184.82293549 411.0569302 -193.0625 410.0625 C-199.81462604 408.18337058 -204.2042471 405.97044975 -208.0625 400.0625 C-213.40206175 388.73792604 -208.93431417 375.05598014 -206.30078125 363.46875 C-205.90851928 361.70583868 -205.5169455 359.94277411 -205.12602234 358.17956543 C-204.30886823 354.50980802 -203.48139016 350.84257125 -202.64672852 347.17675781 C-201.58002553 342.48653585 -200.54299893 337.79030548 -199.51388264 333.09171295 C-198.7144312 329.45989468 -197.89782259 325.83209784 -197.07616234 322.20524597 C-196.68657389 320.47460913 -196.30267177 318.74268167 -195.9246769 317.00947571 C-195.39490491 314.59111504 -194.84179857 312.1792492 -194.2824707 309.76757812 C-194.13213379 309.05791901 -193.98179687 308.34825989 -193.8269043 307.61709595 C-192.67637705 302.81220029 -190.9491142 300.11029922 -187.0625 297.0625 C-182.77002394 296.9118868 -180.84199504 297.39992921 -177.5625 300.1875 C-174.31408002 306.4136383 -178.26258853 315.98866406 -179.6875 322.5625 C-179.94966309 323.77776367 -180.21182617 324.99302734 -180.48193359 326.24511719 C-182.51111938 335.60967242 -184.58348019 344.96448377 -186.6875 354.3125 C-186.83561127 354.9708786 -186.98372253 355.6292572 -187.13632202 356.30758667 C-189.08192137 364.93701776 -191.1174653 373.52871099 -193.43359375 382.06640625 C-194.23625147 385.89024769 -194.85156425 389.48437151 -193.0625 393.0625 C-188.26913271 393.38552936 -185.60551409 392.64334265 -181.4921875 390.203125 C-179.91703369 389.28128418 -179.91703369 389.28128418 -178.31005859 388.34082031 C-177.19711426 387.67147461 -176.08416992 387.00212891 -174.9375 386.3125 C-173.76057014 385.61707681 -172.58298973 384.92275353 -171.40478516 384.22949219 C-167.94754443 382.19000979 -164.50445506 380.12767304 -161.0625 378.0625 C-159.38555838 377.06226237 -157.70849133 376.06223498 -156.03125 375.0625 C-152.88327463 373.18097063 -149.74122183 371.2899002 -146.6015625 369.39453125 C-139.69209837 365.22902315 -132.75122978 361.11649122 -125.8125 357 C-124.43423753 356.18205976 -123.05598237 355.36410721 -121.67773438 354.54614258 C-115.43840975 350.84361352 -109.19812416 347.14270653 -102.95718384 343.44290161 C-100.94731899 342.25118971 -98.93775174 341.05897721 -96.92822266 339.86669922 C-94.28067431 338.29595255 -91.63175811 336.72754784 -88.98193359 335.16064453 C-82.86550918 331.53950134 -76.76621715 327.89511767 -70.71212769 324.17045593 C-67.95172361 322.47219999 -65.18604373 320.78262603 -62.42047119 319.09280396 C-61.11190588 318.28917352 -59.80628236 317.48073056 -58.50384521 316.66720581 C-56.70488381 315.54360872 -54.89671445 314.43645157 -53.0859375 313.33203125 C-52.06419434 312.69885986 -51.04245117 312.06568848 -49.98974609 311.41333008 C-46.65000243 309.87214562 -44.69900699 309.60200672 -41.0625 310.0625 C-38.54663086 311.16967773 -38.54663086 311.16967773 -36.02734375 312.74609375 C-35.06787842 313.33543701 -34.10841309 313.92478027 -33.11987305 314.53198242 C-32.09031494 315.18142822 -31.06075684 315.83087402 -30 316.5 C-28.33477616 317.52559817 -26.66951444 318.55113797 -25.00263977 319.5740509 C-23.83349259 320.29193893 -22.66528509 321.01135932 -21.49797058 321.73222351 C-15.4259224 325.47682289 -9.27214924 329.07712678 -3.10803223 332.66744995 C-0.01747843 334.46810718 3.06962727 336.27464585 6.15625 338.08203125 C6.74742615 338.42818985 7.33860229 338.77434845 7.94769287 339.1309967 C13.68287675 342.49298544 19.3841566 345.90959435 25.07836914 349.34033203 C32.76255843 353.96708798 40.47379473 358.54769709 48.1875 363.125 C49.54476207 363.93065909 50.90202117 364.73632317 52.25927734 365.54199219 C58.7666854 369.4041681 65.27577147 373.2634928 71.78738403 377.11857605 C74.76631199 378.88245839 77.74458488 380.64744497 80.72277832 382.41256714 C82.15318911 383.25991374 83.58393271 384.10669877 85.01501465 384.95291138 C86.99908445 386.12612805 88.98207698 387.30114544 90.96484375 388.4765625 C92.09656006 389.1463916 93.22827637 389.8162207 94.39428711 390.50634766 C96.9375 392.0625 96.9375 392.0625 97.9375 393.0625 C100.60808851 393.20365161 103.26182238 393.10497107 105.9375 393.0625 C106.39925068 385.57290405 104.66478804 378.97565265 102.8125 371.75 C102.16201625 369.13720168 101.51337358 366.52401383 100.8671875 363.91015625 C100.70313416 363.25001526 100.53908081 362.58987427 100.37005615 361.909729 C98.78891955 355.52458839 97.34656639 349.11244003 95.9375 342.6875 C95.44663091 340.45572558 94.95574527 338.22395479 94.46484375 335.9921875 C94.21718262 334.86522461 93.96952148 333.73826172 93.71435547 332.57714844 C92.33076103 326.31749239 90.91457912 320.06521362 89.5 313.8125 C89.20512683 312.50757574 88.9102864 311.20264409 88.61547852 309.89770508 C87.27877892 303.98274847 85.93942765 298.06840529 84.59487915 292.15522766 C81.26422479 277.5042417 77.99267427 262.8448961 74.89038086 248.14379883 C74.54825562 246.527677 74.54825562 246.527677 74.19921875 244.87890625 C73.88090088 243.36514404 73.88090088 243.36514404 73.55615234 241.82080078 C73.01768076 239.41999103 72.38477718 237.07874455 71.70703125 234.71484375 C70.84284619 230.61325476 70.75129248 228.08813338 71.9375 224.0625 C73.86637236 221.80330087 75.57395759 220.07117086 77.8125 218.1875 C78.40039307 217.66921631 78.98828613 217.15093262 79.59399414 216.61694336 C83.9809243 212.77963804 88.51244349 209.11884081 93.05859375 205.47265625 C96.46788612 202.61847254 99.70130069 199.60972417 102.9375 196.5625 C107.84712356 191.93956979 112.88228308 187.5964901 118.1484375 183.37890625 C122.57484163 179.70263503 126.74551112 175.75823628 130.953125 171.8359375 C135.57103761 167.53144486 140.34511607 163.41937595 145.1484375 159.32421875 C151.69405431 153.73931067 158.15789507 148.09696039 164.50390625 142.28515625 C170.2450243 137.0416632 176.16292393 132.00087328 182.0625 126.9375 C182.64878174 126.43428223 183.23506348 125.93106445 183.83911133 125.41259766 C184.41040771 124.9232373 184.9817041 124.43387695 185.5703125 123.9296875 C186.1286377 123.44959229 186.68696289 122.96949707 187.26220703 122.47485352 C188.38325739 121.5297535 189.52007079 120.60305492 190.67138672 119.69506836 C194.17268246 116.95753223 194.17268246 116.95753223 195.8125 112.875 C195.88375001 111.27187485 195.9375 109.6672077 195.9375 108.0625 C192.96438691 107.2376109 190.12480394 106.83226821 187.05126953 106.58520508 C186.06805222 106.50430634 185.0848349 106.42340759 184.07182312 106.34005737 C182.99882462 106.25490875 181.92582611 106.16976013 180.8203125 106.08203125 C178.46605317 105.8887279 176.11180568 105.6952802 173.75756836 105.50170898 C172.50620087 105.39994354 171.25483337 105.2981781 169.96554565 105.19332886 C163.2717034 104.64738517 156.57897816 104.08840843 149.88671875 103.5234375 C149.19265238 103.46484747 148.49858601 103.40625744 147.78348732 103.34589195 C129.5319207 101.80042246 111.30268674 100.03432732 93.07519531 98.22827148 C90.53060696 97.97631894 87.98601071 97.72444612 85.44140625 97.47265625 C84.20985809 97.35065353 82.97830994 97.22865082 81.70944214 97.10295105 C73.75736534 96.32145944 65.80179207 95.60636727 57.83984375 94.93359375 C54.91058606 94.67982972 51.98142325 94.42499465 49.05227661 94.16995239 C47.24770321 94.01684597 45.44257735 93.87009744 43.63693237 93.73019409 C41.20165082 93.54150379 38.76905879 93.33169123 36.3359375 93.1171875 C35.63496445 93.06940659 34.93399139 93.02162567 34.21177673 92.97239685 C31.06906294 92.67592556 29.16722288 92.23669457 26.63061523 90.31323242 C24.84295173 87.93681284 23.63596557 85.72227023 22.44921875 82.99609375 C21.77173584 81.45731567 21.77173584 81.45731567 21.08056641 79.88745117 C20.60022949 78.76959229 20.11989258 77.6517334 19.625 76.5 C19.11372559 75.32993408 18.60245117 74.15986816 18.07568359 72.9543457 C16.34839161 68.9966375 14.64269462 65.02976662 12.9375 61.0625 C12.29551932 59.57221859 11.6534269 58.08198532 11.01123047 56.59179688 C8.39658334 50.52141516 5.78719694 44.44879933 3.19018555 38.37084961 C2.88918442 37.66646255 2.58818329 36.9620755 2.27806091 36.23634338 C1.68628134 34.84844373 1.09621335 33.4598129 0.50794983 32.07041931 C-0.90191664 28.74569272 -2.33751499 25.4384403 -3.84082031 22.15478516 C-4.12176544 21.53078323 -4.40271057 20.90678131 -4.69216919 20.26387024 C-5.45268012 18.57916226 -6.22608992 16.90029358 -7.00048828 15.22192383 C-8.21438488 11.61065121 -8.39934111 8.84901017 -8.0625 5.0625 C-5.56394946 1.53513453 -4.39937831 0.08978323 0 0 Z " fill="#020100" transform="translate(300.0625,90.9375)"/>
<path d="M0 0 C6.14102611 5.56976786 9.81353484 12.15381182 12.9921875 19.72265625 C13.36103058 20.58257675 13.72987366 21.44249725 14.1098938 22.32847595 C14.87982577 24.13211043 15.64424254 25.93810851 16.40332031 27.74633789 C17.56393278 30.50340361 18.74947514 33.24879356 19.9375 35.99414062 C20.68641634 37.75716738 21.43386368 39.52081903 22.1796875 41.28515625 C22.53271942 42.09888199 22.88575134 42.91260773 23.2494812 43.75099182 C25.21017635 48.48177711 26.19432934 52.21949958 25.6875 57.4375 C24.1853242 59.75773968 23.24859431 60.28304145 20.6015625 61.01171875 C18.11634178 61.13470749 16.11256297 61.01161529 13.6875 60.4375 C8.68637162 53.85834568 5.83474052 46.15137843 2.6875 38.5625 C-0.73153116 30.37938736 -4.20615057 22.30270358 -8.3125 14.4375 C-10.2925 14.4375 -12.2725 14.4375 -14.3125 14.4375 C-20.34351475 25.84954828 -25.34810069 37.65638243 -30.35629272 49.54425049 C-32.61899201 54.91389949 -34.89414455 60.27825677 -37.17033958 65.64219666 C-37.69614787 66.88130278 -38.22181371 68.12046936 -38.74733925 69.35969543 C-44.5870446 83.12775404 -50.53301167 96.84915736 -56.5 110.5625 C-58.40378416 114.93874193 -60.30747409 119.3150248 -62.2109375 123.69140625 C-62.65635391 124.71533478 -63.10177032 125.73926331 -63.5606842 126.79421997 C-67.76086311 136.45602073 -71.91787763 146.13595324 -76.04174805 155.83056641 C-76.457229 156.80558105 -76.87270996 157.7805957 -77.30078125 158.78515625 C-77.64665283 159.59992432 -77.99252441 160.41469238 -78.34887695 161.25415039 C-78.66687256 161.97465576 -78.98486816 162.69516113 -79.3125 163.4375 C-79.6221167 164.15220459 -79.9317334 164.86690918 -80.25073242 165.60327148 C-81.3125 167.4375 -81.3125 167.4375 -84.3125 169.4375 C-86.81053434 169.82071491 -89.23397661 170.09906573 -91.74731445 170.30371094 C-92.88786333 170.40691367 -92.88786333 170.40691367 -94.05145359 170.51220131 C-96.59225275 170.74013102 -99.13393953 170.95590806 -101.67578125 171.171875 C-103.47656261 171.33127847 -105.2772715 171.49150254 -107.07791138 171.65249634 C-110.92286897 171.99480531 -114.76822525 172.33202575 -118.61398315 172.66522217 C-124.6309001 173.1867694 -130.64673631 173.72003871 -136.66235352 174.25634766 C-138.15947388 174.389793 -138.15947388 174.389793 -139.6868391 174.52593422 C-141.7052193 174.70587418 -143.72359566 174.88585731 -145.74196815 175.06588364 C-148.78097018 175.33660854 -151.82006329 175.60629077 -154.85917664 175.87576294 C-171.19854431 177.32635332 -187.53034979 178.84733304 -203.85702515 180.4342041 C-206.42189499 180.68344274 -208.9868549 180.93175656 -211.5519104 181.17907715 C-224.82344908 182.45911515 -238.08018245 183.79723551 -251.3125 185.4375 C-251.65501601 190.09191053 -251.65501601 190.09191053 -249.2265625 193.921875 C-248.26492187 194.75203125 -247.30328125 195.5821875 -246.3125 196.4375 C-245.25360377 197.43827385 -244.19910839 198.44371913 -243.1484375 199.453125 C-236.96904371 205.24769854 -230.7169938 210.82289435 -224.1015625 216.12109375 C-219.67515837 219.79736497 -215.50448888 223.74176372 -211.296875 227.6640625 C-206.67896239 231.96855514 -201.90488393 236.08062405 -197.1015625 240.17578125 C-190.55594569 245.76068933 -184.09210493 251.40303961 -177.74609375 257.21484375 C-173.275435 261.29799757 -168.70108111 265.25592379 -164.09375 269.18359375 C-162.89569225 270.2055638 -161.6977799 271.22770431 -160.5 272.25 C-159.59096924 273.02573364 -159.59096924 273.02573364 -158.66357422 273.81713867 C-154.01206187 277.8019301 -149.48753254 281.91102988 -144.98046875 286.05859375 C-142.20400946 288.53423608 -139.34234925 290.86439626 -136.4375 293.1875 C-128.39866037 299.78671935 -128.39866037 299.78671935 -126.3125 303.4375 C-126.02633909 311.28521626 -128.45768888 319.29346294 -130.21386719 326.88720703 C-130.68630697 328.93233555 -131.14854066 330.97957244 -131.609375 333.02734375 C-132.47378759 336.83984973 -133.38201021 340.64051814 -134.3125 344.4375 C-134.56161133 345.45714844 -134.81072266 346.47679687 -135.06738281 347.52734375 C-135.30553711 348.41550781 -135.54369141 349.30367188 -135.7890625 350.21875 C-135.98838379 350.97220703 -136.18770508 351.72566406 -136.39306641 352.50195312 C-137.59198819 355.02586494 -138.9236799 356.02295884 -141.3125 357.4375 C-147.44730688 358.08326914 -147.44730688 358.08326914 -150.00195312 356.17651367 C-152.61276986 352.71212329 -151.74244976 348.56411122 -151.3125 344.4375 C-150.33619119 339.11847255 -149.09356008 333.87759197 -147.8125 328.625 C-147.30885599 326.53340457 -146.80855252 324.44114443 -146.3145752 322.34724426 C-145.86857782 320.46050019 -145.41213306 318.57623464 -144.95507812 316.69213867 C-144.3785207 313.77189283 -143.96853091 311.38886341 -144.3125 308.4375 C-145.37698694 306.7488564 -145.37698694 306.7488564 -146.98828125 305.421875 C-147.56320313 304.89787109 -148.138125 304.37386719 -148.73046875 303.83398438 C-149.66826172 303.01897461 -149.66826172 303.01897461 -150.625 302.1875 C-151.264375 301.61322266 -151.90375 301.03894531 -152.5625 300.44726562 C-157.07983717 296.4213354 -161.74411137 292.5922109 -166.46875 288.8125 C-169.86885185 285.9728545 -173.088351 282.97360629 -176.3125 279.9375 C-181.22556055 275.31129473 -186.26371959 270.96479122 -191.53515625 266.74609375 C-195.32067282 263.59948293 -198.88755162 260.24062334 -202.47900391 256.87646484 C-205.80422323 253.77955297 -209.19979071 250.84121008 -212.75 248 C-217.77172225 243.97238871 -222.43832761 239.64404144 -227.12084961 235.23461914 C-230.58328844 231.99186739 -234.10545976 228.90313219 -237.8125 225.9375 C-242.89462156 221.87180275 -247.64010828 217.50842346 -252.3671875 213.04101562 C-255.04337797 210.51695199 -257.73089902 208.06048166 -260.58203125 205.734375 C-265.00448201 202.01420183 -267.02891279 198.98978491 -267.66015625 193.30859375 C-267.8160161 187.35203675 -267.83468826 182.46919751 -264.3125 177.4375 C-263.796875 176.57125 -263.28125 175.705 -262.75 174.8125 C-255.5630282 167.80980953 -245.02458668 167.51295128 -235.53466797 166.69824219 C-234.06823767 166.56101732 -232.60193153 166.42246019 -231.13574219 166.28268433 C-227.1825524 165.90967689 -223.22788769 165.55544013 -219.27264929 165.20491695 C-215.11944106 164.83377804 -210.96780349 164.44580597 -206.81594849 164.05987549 C-199.84840745 163.41459373 -192.87992298 162.78052289 -185.91064453 162.15429688 C-176.98054265 161.35184258 -168.05212381 160.53206006 -159.1241436 159.70637131 C-151.4250411 158.9943456 -143.72533382 158.28894617 -136.02546167 157.58529758 C-134.37818797 157.43467421 -132.73093395 157.28383534 -131.0836997 157.13278103 C-126.38772974 156.70218877 -121.69146642 156.27514566 -116.99464417 155.85394669 C-115.57560854 155.72617582 -114.15668001 155.59720856 -112.73787308 155.46692276 C-105.90947935 154.84079331 -99.17182536 154.26814397 -92.3125 154.4375 C-92.1473288 153.91012741 -91.98215759 153.38275482 -91.8119812 152.83940125 C-89.83418865 146.7005099 -87.44358394 140.81073555 -84.8828125 134.89453125 C-84.45662125 133.90200348 -84.03042999 132.90947571 -83.59132385 131.88687134 C-82.21023319 128.67305469 -80.82394162 125.46151141 -79.4375 122.25 C-78.47082313 120.00346002 -77.50443524 117.75679566 -76.53833008 115.51000977 C-71.24102956 103.19753277 -65.93404274 90.88891665 -60.57250977 78.60424805 C-57.33309833 71.16355568 -54.1498758 63.70068366 -50.99327087 56.22444153 C-49.11141129 51.7675973 -47.22201939 47.31395472 -45.33153629 42.8607626 C-43.70912797 39.03705292 -42.09647993 35.20941449 -40.49075699 31.37867069 C-39.23315569 28.38671441 -37.96102867 25.40093313 -36.69140625 22.4140625 C-36.01233719 20.78152779 -36.01233719 20.78152779 -35.31954956 19.11601257 C-31.67730737 10.6048609 -27.76221441 2.93202894 -19.3125 -1.5625 C-12.81890444 -3.25083485 -6.07389734 -2.86504591 0 0 Z " fill="#010100" transform="translate(267.3125,13.5625)"/>
</svg>
